<svg width="24" height="24" viewBox="0 0 24 24" fill="none" xmlns="http://www.w3.org/2000/svg">
<g id="Iconly/Light/2 User">
<g id="2 User">
<path id="Stroke 1" fill-rule="evenodd" clip-rule="evenodd" d="M9.59151 15.2068C13.2805 15.2068 16.4335 15.7658 16.4335 17.9988C16.4335 20.2318 13.3015 20.8068 9.59151 20.8068C5.90151 20.8068 2.74951 20.2528 2.74951 18.0188C2.74951 15.7848 5.88051 15.2068 9.59151 15.2068Z" stroke="white" stroke-width="1.5" stroke-linecap="round" stroke-linejoin="round"/>
<path id="Stroke 3" fill-rule="evenodd" clip-rule="evenodd" d="M9.59157 12.0198C7.16957 12.0198 5.20557 10.0568 5.20557 7.63479C5.20557 5.21279 7.16957 3.24979 9.59157 3.24979C12.0126 3.24979 13.9766 5.21279 13.9766 7.63479C13.9856 10.0478 12.0356 12.0108 9.62257 12.0198H9.59157Z" stroke="white" stroke-width="1.5" stroke-linecap="round" stroke-linejoin="round"/>
<path id="Stroke 5" d="M16.4829 10.8816C18.0839 10.6566 19.3169 9.28259 19.3199 7.61959C19.3199 5.98059 18.1249 4.62059 16.5579 4.36359" stroke="white" stroke-width="1.5" stroke-linecap="round" stroke-linejoin="round"/>
<path id="Stroke 7" d="M18.5952 14.7322C20.1462 14.9632 21.2292 15.5072 21.2292 16.6272C21.2292 17.3982 20.7192 17.8982 19.8952 18.2112" stroke="white" stroke-width="1.5" stroke-linecap="round" stroke-linejoin="round"/>
</g>
</g>
</svg>
