<svg width={16} height={16} viewBox="0 0 16 16" fill="none" xmlns="http://www.w3.org/2000/svg">
  <path d="M6.16006 4.59998C6.72475 4.96812 7.18874 5.47127 7.51001 6.06388C7.83129 6.6565 7.99972 7.31988 8.00006 7.99398C8.00006 6.57898 8.72606 5.33398 9.82506 4.60998C10.0551 4.41098 10.2511 4.21498 10.4341 4.00798L5.56006 4.00098C5.75006 4.21498 5.94606 4.41098 6.15306 4.59498L6.16006 4.59998Z" fill="#444444" />
  <path d="M11.18 6.06C11.743 5.65256 12.2015 5.11752 12.5178 4.49872C12.8342 3.87992 12.9994 3.19497 13 2.5V2H14V0H2V2H3V2.5C2.99999 3.19253 3.16378 3.87525 3.478 4.4924C3.79222 5.10954 4.24796 5.64362 4.808 6.051C5.14256 6.26061 5.42419 6.54465 5.63095 6.88098C5.83771 7.21731 5.96401 7.59684 6 7.99C5.95781 8.39213 5.82763 8.78004 5.61868 9.12621C5.40974 9.47238 5.12716 9.76831 4.791 9.993C4.24362 10.4002 3.7974 10.928 3.48698 11.5355C3.17655 12.143 3.01026 12.8138 3.001 13.496V13.999H2.001V15.999H14.001V13.999H13.001V13.499C12.993 12.8204 12.8293 12.1527 12.5226 11.5473C12.2159 10.9419 11.7744 10.4149 11.232 10.007C10.8931 9.78489 10.6073 9.49093 10.3947 9.14599C10.1821 8.80104 10.0481 8.41355 10.002 8.011C10.0334 7.6184 10.1553 7.23841 10.3581 6.9008C10.5609 6.56318 10.8391 6.27711 11.171 6.065L11.18 6.06ZM9 8C9.03357 8.54411 9.18718 9.07405 9.44981 9.55176C9.71244 10.0295 10.0776 10.4431 10.519 10.763C10.9608 11.0723 11.3247 11.4802 11.5817 11.9543C11.8387 12.4285 11.9819 12.956 12 13.495V14H10.23C9.53 13.13 8.52 12 8 12C7.48 12 6.47 13.13 5.77 14H4V13.5C4.01653 12.9643 4.15685 12.4397 4.40997 11.9673C4.66309 11.4949 5.02214 11.0875 5.459 10.777C5.90443 10.4587 6.27364 10.0455 6.53996 9.56713C6.80627 9.08879 6.96306 8.55729 6.999 8.011C6.97119 7.47899 6.82168 6.96046 6.56198 6.49532C6.30227 6.03017 5.9393 5.63082 5.501 5.328C5.04012 5.01395 4.66256 4.59249 4.40089 4.09998C4.13922 3.60748 4.00129 3.0587 3.999 2.501V2.001H11.999V2.501C11.998 3.05448 11.863 3.59948 11.6054 4.08937C11.3478 4.57926 10.9754 4.99946 10.52 5.314C10.0784 5.61413 9.71153 6.01167 9.44782 6.47598C9.18411 6.94029 9.03056 7.45896 8.999 7.992L9 8Z" fill="#444444" />
</svg>
