<svg width={17} height={23} viewBox="0 0 17 23" fill="none" xmlns="http://www.w3.org/2000/svg">
  <path d="M15.9917 20.002H14.9917V18.335C14.9886 17.7627 14.8873 17.1952 14.6921 16.6572C14.6812 16.6279 14.6697 16.6006 14.6562 16.5727C14.4943 16.1311 14.2705 15.7147 13.9917 15.3359L12.5918 13.4687C12.2034 12.9486 11.9929 12.3171 11.9917 11.668V10.6582C11.994 9.86308 12.3096 9.10096 12.8701 8.53706L13.5273 7.87983C14.291 7.11208 14.7815 6.11493 14.9236 5.04145C14.9242 5.02754 14.9316 5.01594 14.9316 5.0019L14.9288 4.98817C14.9636 4.77525 14.9846 4.56031 14.9917 4.34468V2.00195H15.9917C16.2569 2.00195 16.5113 1.8966 16.6988 1.70906C16.8864 1.52152 16.9917 1.26717 16.9917 1.00195C16.9917 0.736737 16.8864 0.482383 16.6988 0.294846C16.5113 0.10731 16.2569 0.00195313 15.9917 0.00195312H1.99171C1.72649 0.00195313 1.47214 0.10731 1.2846 0.294846C1.09707 0.482383 0.991709 0.736737 0.991709 1.00195C0.991709 1.26717 1.09707 1.52152 1.2846 1.70906C1.47214 1.8966 1.72649 2.00195 1.99171 2.00195H2.99171V4.34468C2.99881 4.56031 3.01981 4.77525 3.05458 4.98817L3.05176 5.00195C3.05176 5.01595 3.0592 5.02759 3.05976 5.0415C3.20192 6.11497 3.69245 7.11213 4.45606 7.87988L5.11329 8.53711C5.67378 9.101 5.9894 9.8631 5.9917 10.6582V11.668C5.9904 12.317 5.78015 12.9484 5.39209 13.4687L3.99121 15.3359C3.71245 15.7149 3.48878 16.1314 3.32684 16.5731C3.31354 16.6008 3.30212 16.6277 3.29132 16.6568C3.09618 17.1949 2.99483 17.7625 2.9917 18.335V20.002H1.9917C1.72648 20.002 1.47213 20.1073 1.28459 20.2948C1.09706 20.4824 0.991699 20.7367 0.991699 21.002C0.991699 21.2672 1.09706 21.5215 1.28459 21.7091C1.47213 21.8966 1.72648 22.002 1.9917 22.002H15.9917C16.2569 22.002 16.5113 21.8966 16.6988 21.7091C16.8863 21.5215 16.9917 21.2672 16.9917 21.002C16.9917 20.7367 16.8863 20.4824 16.6988 20.2948C16.5113 20.1073 16.2569 20.002 15.9917 20.002ZM4.9917 4.00195V2.00195H12.9917V4.00195H4.9917ZM5.87012 6.46582C5.72921 6.32426 5.60294 6.16885 5.49323 6.00195H12.4902C12.3805 6.16885 12.2542 6.32426 12.1133 6.46582L11.456 7.12305C10.676 7.8985 10.1758 8.91122 10.0342 10.002H7.94918C7.80755 8.91119 7.30738 7.89843 6.52734 7.12295L5.87012 6.46582ZM6.99219 14.668C7.57081 13.8926 7.91391 12.9671 7.98047 12.002H10.0029C10.0694 12.9672 10.4127 13.8928 10.9917 14.668L11.9918 16.002H5.99133L6.99219 14.668ZM12.9917 20.002H4.9917V18.335C4.99448 18.2235 5.00357 18.1124 5.01892 18.002H12.9645C12.9798 18.1124 12.9889 18.2235 12.9917 18.335V20.002Z" fill="black" />
</svg>
